<svg xmlns="http://www.w3.org/2000/svg" xmlns:xlink="http://www.w3.org/1999/xlink" width="110" zoomAndPan="magnify" viewBox="0 0 82.5 82.499998" height="110" preserveAspectRatio="xMidYMid meet" version="1.0"><defs><clipPath id="1286d3a864"><path d="M 0.597656 0 L 81.109375 0 L 81.109375 82 L 0.597656 82 Z M 0.597656 0 " clip-rule="nonzero"/></clipPath><clipPath id="6bac616a77"><path d="M 0.597656 0 L 81.109375 0 L 81.109375 82 L 0.597656 82 Z M 0.597656 0 " clip-rule="nonzero"/></clipPath></defs><g clip-path="url(#1286d3a864)"><path fill="#43241e" d="M 81.273438 48.210938 C 81.308594 48.40625 81.21875 48.585938 81.042969 48.671875 C 78.625 50.0625 76.164062 49.355469 73.785156 48.671875 C 72.828125 48.394531 71.839844 48.113281 70.882812 47.976562 C 69.847656 47.882812 68.871094 48.105469 67.808594 48.675781 C 67.382812 48.902344 66.769531 49.167969 66.019531 49.441406 C 68.363281 50.597656 70.476562 52.152344 71.953125 55.550781 C 72.078125 55.835938 72.203125 56.125 72.324219 56.410156 C 73.175781 58.410156 73.980469 60.296875 76.109375 61.042969 C 76.285156 61.105469 76.398438 61.273438 76.394531 61.46875 C 76.398438 61.484375 76.402344 61.5 76.398438 61.515625 C 76.398438 61.53125 76.390625 61.542969 76.386719 61.558594 C 76.347656 61.75 76.203125 61.886719 76.011719 61.90625 C 75.65625 61.96875 75.3125 61.996094 74.976562 61.996094 C 72.726562 61.996094 70.933594 60.691406 69.1875 59.421875 C 68.386719 58.835938 67.554688 58.234375 66.699219 57.777344 C 65.761719 57.335938 64.765625 57.207031 63.570312 57.382812 C 63.09375 57.453125 62.425781 57.492188 61.628906 57.492188 C 63.433594 59.378906 64.890625 61.5625 65.113281 65.261719 C 65.136719 65.574219 65.152344 65.886719 65.171875 66.199219 C 65.289062 68.367188 65.398438 70.414062 67.144531 71.847656 C 67.289062 71.964844 67.335938 72.160156 67.265625 72.339844 C 67.261719 72.355469 67.261719 72.371094 67.253906 72.386719 C 67.242188 72.40625 67.230469 72.417969 67.214844 72.433594 C 67.132812 72.558594 67.003906 72.636719 66.863281 72.636719 C 66.828125 72.636719 66.792969 72.632812 66.753906 72.621094 C 64.007812 72.132812 62.578125 70.007812 61.195312 67.953125 C 60.636719 67.128906 60.066406 66.277344 59.417969 65.558594 C 58.6875 64.820312 57.792969 64.363281 56.613281 64.117188 C 56.140625 64.019531 55.5 63.824219 54.75 63.554688 C 55.800781 65.945312 56.421875 68.496094 55.367188 72.050781 C 55.28125 72.347656 55.191406 72.648438 55.101562 72.945312 C 54.46875 75.023438 53.871094 76.984375 55.023438 78.929688 C 55.117188 79.089844 55.09375 79.289062 54.96875 79.4375 C 54.960938 79.449219 54.953125 79.464844 54.941406 79.472656 C 54.929688 79.484375 54.914062 79.492188 54.902344 79.5 C 54.820312 79.566406 54.722656 79.601562 54.628906 79.601562 C 54.546875 79.601562 54.464844 79.574219 54.394531 79.527344 C 51.976562 78.125 51.359375 75.640625 50.761719 73.238281 C 50.523438 72.273438 50.273438 71.277344 49.914062 70.378906 C 49.480469 69.4375 48.796875 68.699219 47.769531 68.0625 C 47.359375 67.808594 46.824219 67.410156 46.210938 66.898438 C 46.382812 69.503906 46.09375 72.113281 43.886719 75.09375 C 43.707031 75.34375 43.515625 75.59375 43.328125 75.84375 C 42.023438 77.582031 40.792969 79.21875 41.210938 81.441406 C 41.246094 81.621094 41.152344 81.804688 40.984375 81.898438 C 40.972656 81.90625 40.960938 81.917969 40.945312 81.925781 C 40.933594 81.929688 40.917969 81.929688 40.902344 81.933594 C 40.851562 81.949219 40.804688 81.960938 40.753906 81.960938 C 40.621094 81.960938 40.496094 81.898438 40.414062 81.785156 C 38.625 79.644531 38.894531 77.097656 39.152344 74.632812 C 39.257812 73.644531 39.367188 72.625 39.335938 71.65625 C 39.246094 70.625 38.859375 69.695312 38.109375 68.75 C 37.8125 68.371094 37.445312 67.8125 37.046875 67.121094 C 36.316406 69.628906 35.152344 71.980469 32.058594 74.027344 C 31.800781 74.199219 31.539062 74.371094 31.277344 74.542969 C 29.457031 75.726562 27.738281 76.847656 27.371094 79.074219 C 27.34375 79.257812 27.195312 79.398438 27.003906 79.429688 C 26.988281 79.433594 26.976562 79.4375 26.957031 79.4375 C 26.957031 79.441406 26.953125 79.441406 26.949219 79.441406 C 26.941406 79.441406 26.933594 79.4375 26.925781 79.433594 C 26.726562 79.433594 26.558594 79.3125 26.503906 79.125 C 25.554688 76.503906 26.679688 74.203125 27.765625 71.976562 C 28.203125 71.082031 28.65625 70.160156 28.953125 69.242188 C 29.226562 68.238281 29.179688 67.234375 28.800781 66.089844 C 28.648438 65.632812 28.496094 64.980469 28.355469 64.195312 C 26.8125 66.300781 24.914062 68.113281 21.308594 68.976562 C 21.007812 69.054688 20.703125 69.125 20.398438 69.195312 C 18.28125 69.6875 16.285156 70.152344 15.175781 72.117188 C 15.101562 72.257812 14.957031 72.335938 14.800781 72.335938 C 14.773438 72.335938 14.746094 72.332031 14.71875 72.328125 C 14.714844 72.328125 14.714844 72.328125 14.710938 72.328125 C 14.695312 72.328125 14.679688 72.324219 14.664062 72.320312 C 14.652344 72.316406 14.640625 72.308594 14.628906 72.300781 C 14.445312 72.230469 14.332031 72.0625 14.34375 71.871094 C 14.351562 69.082031 16.191406 67.304688 17.976562 65.582031 C 18.691406 64.894531 19.429688 64.179688 20.027344 63.417969 C 20.625 62.570312 20.921875 61.613281 20.960938 60.40625 C 20.972656 59.921875 21.050781 59.261719 21.191406 58.472656 C 19.019531 59.925781 16.613281 60.980469 12.929688 60.558594 C 12.621094 60.523438 12.3125 60.488281 12 60.449219 C 9.847656 60.1875 7.8125 59.941406 6.097656 61.414062 C 6.019531 61.480469 5.921875 61.515625 5.820312 61.515625 C 5.746094 61.515625 5.667969 61.492188 5.59375 61.453125 C 5.578125 61.445312 5.5625 61.4375 5.546875 61.425781 C 5.535156 61.417969 5.527344 61.40625 5.519531 61.398438 C 5.367188 61.265625 5.320312 61.070312 5.398438 60.894531 C 6.359375 58.273438 8.699219 57.234375 10.960938 56.226562 C 11.871094 55.824219 12.808594 55.40625 13.628906 54.894531 C 14.480469 54.304688 15.089844 53.503906 15.535156 52.382812 C 15.714844 51.933594 16.015625 51.339844 16.414062 50.648438 C 15.351562 50.90625 14.273438 51.089844 13.136719 51.089844 C 11.558594 51.089844 9.867188 50.742188 7.941406 49.78125 C 7.660156 49.644531 7.382812 49.503906 7.105469 49.359375 C 5.167969 48.378906 3.339844 47.449219 1.226562 48.246094 C 1.054688 48.3125 0.863281 48.253906 0.738281 48.109375 C 0.726562 48.097656 0.714844 48.085938 0.703125 48.070312 C 0.695312 48.058594 0.691406 48.046875 0.6875 48.035156 C 0.589844 47.859375 0.613281 47.660156 0.746094 47.523438 C 2.542969 45.386719 5.101562 45.210938 7.570312 45.039062 C 8.5625 44.96875 9.585938 44.898438 10.535156 44.699219 C 11.535156 44.433594 12.382812 43.890625 13.183594 42.992188 C 13.507812 42.628906 13.992188 42.171875 14.605469 41.660156 C 12.007812 41.375 9.488281 40.636719 6.9375 37.945312 C 6.722656 37.722656 6.507812 37.496094 6.292969 37.265625 C 4.824219 35.691406 3.433594 34.207031 1.207031 34.207031 C 1.1875 34.207031 1.167969 34.207031 1.152344 34.207031 C 0.964844 34.210938 0.804688 34.089844 0.742188 33.90625 C 0.734375 33.894531 0.726562 33.878906 0.722656 33.863281 C 0.71875 33.851562 0.71875 33.835938 0.71875 33.824219 C 0.6875 33.628906 0.777344 33.445312 0.949219 33.363281 C 3.371094 31.972656 5.832031 32.679688 8.210938 33.363281 C 9.167969 33.636719 10.152344 33.921875 11.113281 34.058594 C 12.144531 34.152344 13.125 33.929688 14.1875 33.359375 C 14.613281 33.128906 15.226562 32.867188 15.976562 32.59375 C 13.632812 31.4375 11.519531 29.882812 10.042969 26.480469 C 9.914062 26.199219 9.792969 25.910156 9.671875 25.621094 C 8.820312 23.625 8.015625 21.738281 5.882812 20.988281 C 5.707031 20.929688 5.597656 20.757812 5.601562 20.566406 C 5.597656 20.550781 5.59375 20.535156 5.597656 20.519531 C 5.597656 20.507812 5.605469 20.496094 5.609375 20.484375 C 5.644531 20.289062 5.792969 20.148438 5.984375 20.128906 C 8.730469 19.648438 10.804688 21.15625 12.804688 22.613281 C 13.609375 23.195312 14.441406 23.800781 15.292969 24.257812 C 16.234375 24.699219 17.230469 24.824219 18.421875 24.652344 C 18.902344 24.582031 19.566406 24.542969 20.367188 24.542969 C 18.558594 22.65625 17.105469 20.472656 16.878906 16.769531 C 16.859375 16.460938 16.839844 16.148438 16.824219 15.835938 C 16.707031 13.667969 16.597656 11.621094 14.851562 10.1875 C 14.707031 10.070312 14.660156 9.875 14.730469 9.691406 C 14.734375 9.679688 14.734375 9.664062 14.742188 9.648438 C 14.75 9.636719 14.757812 9.628906 14.765625 9.617188 C 14.867188 9.445312 15.050781 9.363281 15.238281 9.414062 C 17.988281 9.902344 19.417969 12.027344 20.800781 14.082031 C 21.355469 14.90625 21.929688 15.757812 22.578125 16.476562 C 23.308594 17.210938 24.203125 17.671875 25.382812 17.917969 C 25.855469 18.015625 26.496094 18.207031 27.246094 18.480469 C 26.191406 16.089844 25.574219 13.539062 26.628906 9.984375 C 26.710938 9.6875 26.804688 9.386719 26.894531 9.085938 C 27.527344 7.011719 28.121094 5.046875 26.972656 3.105469 C 26.875 2.945312 26.902344 2.742188 27.027344 2.597656 C 27.035156 2.585938 27.042969 2.570312 27.054688 2.558594 C 27.0625 2.550781 27.074219 2.546875 27.085938 2.539062 C 27.242188 2.414062 27.441406 2.398438 27.601562 2.507812 C 30.015625 3.90625 30.632812 6.394531 31.230469 8.796875 C 31.472656 9.761719 31.71875 10.757812 32.082031 11.65625 C 32.515625 12.597656 33.199219 13.335938 34.222656 13.96875 C 34.636719 14.222656 35.171875 14.625 35.78125 15.136719 C 35.609375 12.53125 35.902344 9.921875 38.109375 6.941406 C 38.289062 6.691406 38.476562 6.441406 38.664062 6.191406 C 39.96875 4.453125 41.199219 2.816406 40.785156 0.59375 C 40.75 0.410156 40.839844 0.230469 41.011719 0.136719 C 41.023438 0.125 41.03125 0.117188 41.046875 0.109375 C 41.0625 0.105469 41.074219 0.105469 41.085938 0.101562 C 41.273438 0.0390625 41.46875 0.09375 41.582031 0.25 C 43.371094 2.390625 43.101562 4.9375 42.839844 7.402344 C 42.738281 8.386719 42.628906 9.410156 42.660156 10.378906 C 42.746094 11.410156 43.136719 12.335938 43.882812 13.285156 C 44.183594 13.664062 44.550781 14.222656 44.949219 14.914062 C 45.679688 12.40625 46.84375 10.050781 49.9375 8.007812 C 50.195312 7.835938 50.457031 7.664062 50.71875 7.492188 C 52.539062 6.308594 54.253906 5.1875 54.625 2.960938 C 54.652344 2.777344 54.800781 2.636719 54.992188 2.605469 C 55.003906 2.601562 55.019531 2.59375 55.035156 2.59375 C 55.050781 2.59375 55.058594 2.597656 55.074219 2.601562 C 55.273438 2.601562 55.4375 2.722656 55.488281 2.90625 C 56.441406 5.53125 55.316406 7.832031 54.226562 10.058594 C 53.792969 10.949219 53.339844 11.875 53.039062 12.792969 C 52.769531 13.796875 52.816406 14.796875 53.195312 15.945312 C 53.347656 16.402344 53.5 17.050781 53.636719 17.839844 C 55.183594 15.730469 57.082031 13.917969 60.6875 13.054688 C 60.988281 12.980469 61.292969 12.910156 61.597656 12.839844 C 63.710938 12.347656 65.710938 11.882812 66.816406 9.914062 C 66.90625 9.753906 67.09375 9.671875 67.285156 9.707031 C 67.300781 9.707031 67.316406 9.707031 67.332031 9.714844 C 67.34375 9.71875 67.355469 9.726562 67.367188 9.730469 C 67.550781 9.800781 67.664062 9.96875 67.648438 10.160156 C 67.644531 12.953125 65.800781 14.730469 64.019531 16.449219 C 63.304688 17.140625 62.5625 17.851562 61.96875 18.613281 C 61.367188 19.460938 61.070312 20.421875 61.035156 21.628906 C 61.019531 22.109375 60.941406 22.773438 60.804688 23.558594 C 62.976562 22.109375 65.378906 21.054688 69.0625 21.476562 C 69.371094 21.507812 69.683594 21.546875 69.992188 21.585938 C 72.148438 21.84375 74.183594 22.09375 75.898438 20.621094 C 76.039062 20.5 76.242188 20.488281 76.40625 20.589844 C 76.421875 20.59375 76.4375 20.597656 76.449219 20.609375 C 76.460938 20.617188 76.46875 20.628906 76.476562 20.636719 C 76.625 20.765625 76.675781 20.964844 76.59375 21.136719 C 75.636719 23.757812 73.296875 24.800781 71.03125 25.804688 C 70.125 26.207031 69.1875 26.625 68.363281 27.136719 C 67.511719 27.730469 66.90625 28.53125 66.457031 29.652344 C 66.277344 30.097656 65.976562 30.695312 65.578125 31.386719 C 68.117188 30.765625 70.738281 30.597656 74.054688 32.253906 C 74.332031 32.390625 74.613281 32.53125 74.890625 32.671875 C 76.828125 33.65625 78.65625 34.582031 80.769531 33.789062 C 80.941406 33.722656 81.136719 33.78125 81.257812 33.929688 C 81.269531 33.941406 81.28125 33.949219 81.292969 33.964844 C 81.300781 33.976562 81.300781 33.988281 81.304688 34 C 81.402344 34.175781 81.382812 34.375 81.246094 34.511719 C 79.449219 36.648438 76.894531 36.824219 74.421875 36.996094 C 73.433594 37.0625 72.40625 37.136719 71.460938 37.335938 C 70.457031 37.601562 69.613281 38.144531 68.808594 39.042969 C 68.488281 39.40625 68 39.863281 67.390625 40.375 C 69.988281 40.660156 72.507812 41.398438 75.058594 44.089844 C 75.273438 44.3125 75.488281 44.539062 75.703125 44.769531 C 77.171875 46.339844 78.5625 47.828125 80.789062 47.828125 C 80.808594 47.828125 80.824219 47.828125 80.84375 47.828125 C 81.03125 47.824219 81.191406 47.945312 81.253906 48.128906 C 81.261719 48.140625 81.269531 48.15625 81.273438 48.171875 C 81.277344 48.183594 81.273438 48.195312 81.273438 48.210938 Z M 81.273438 48.210938 " fill-opacity="1" fill-rule="nonzero"/></g><path fill="#f7e8ac" d="M 40.996094 62.023438 C 50.96875 62.023438 61.871094 55.449219 62.238281 41.015625 C 61.871094 26.585938 50.972656 20.011719 41 20.011719 C 31.023438 20.007812 20.125 26.582031 19.757812 41.019531 C 20.121094 55.449219 31.023438 62.023438 40.996094 62.023438 Z M 21.828125 41.019531 C 22.160156 27.988281 31.996094 22.054688 40.996094 22.054688 L 41 22.054688 C 50 22.054688 59.835938 27.988281 60.167969 41.011719 C 60.167969 41.015625 60.167969 41.019531 60.167969 41.019531 C 59.835938 54.046875 50 59.980469 40.996094 59.980469 C 31.996094 59.976562 22.15625 54.046875 21.828125 41.019531 Z M 21.828125 41.019531 " fill-opacity="1" fill-rule="nonzero"/><path fill="#eac661" d="M 50.117188 8.28125 C 50.375 8.105469 50.636719 7.9375 50.894531 7.765625 C 52.628906 6.636719 54.414062 5.46875 54.890625 3.265625 C 54.859375 5.722656 53.558594 7.21875 52.1875 8.800781 C 50.515625 10.71875 48.625 12.898438 48.792969 17.167969 C 48.851562 18.582031 48.835938 19.859375 48.761719 21.015625 C 48.382812 20.882812 48.003906 20.757812 47.621094 20.644531 C 46.851562 18.605469 45.960938 16.726562 45.175781 15.3125 C 45.886719 12.746094 46.992188 10.34375 50.117188 8.28125 Z M 52.433594 9.011719 C 50.722656 10.980469 48.957031 13.015625 49.121094 17.152344 C 49.179688 18.621094 49.160156 19.9375 49.078125 21.132812 C 49.6875 21.359375 50.289062 21.613281 50.878906 21.894531 C 51.375 21.222656 51.828125 20.53125 52.273438 19.847656 C 52.636719 19.292969 52.996094 18.742188 53.375 18.207031 C 53.222656 17.300781 53.054688 16.554688 52.886719 16.046875 C 52.484375 14.835938 52.4375 13.773438 52.726562 12.699219 C 53.039062 11.75 53.492188 10.816406 53.933594 9.914062 C 54.976562 7.78125 56.054688 5.574219 55.21875 3.125 C 55.238281 5.785156 53.875 7.355469 52.433594 9.011719 Z M 62.691406 14.855469 C 60.410156 16.117188 58.054688 17.425781 56.792969 21.371094 C 56.375 22.683594 55.9375 23.847656 55.484375 24.890625 C 56.003906 25.339844 56.5 25.816406 56.976562 26.324219 C 57.617188 25.890625 58.230469 25.433594 58.832031 24.980469 C 59.363281 24.582031 59.890625 24.1875 60.429688 23.816406 C 60.597656 22.910156 60.691406 22.152344 60.707031 21.617188 C 60.746094 20.34375 61.0625 19.328125 61.703125 18.421875 C 62.320312 17.632812 63.070312 16.914062 63.792969 16.214844 C 65.5 14.566406 67.265625 12.863281 67.320312 10.273438 C 66.429688 12.78125 64.609375 13.789062 62.691406 14.855469 Z M 52.546875 20.027344 C 52.109375 20.699219 51.664062 21.375 51.175781 22.042969 C 52.609375 22.753906 53.972656 23.628906 55.222656 24.671875 C 55.660156 23.660156 56.078125 22.535156 56.480469 21.269531 C 57.78125 17.203125 60.304688 15.804688 62.53125 14.570312 C 64.355469 13.558594 66.085938 12.597656 66.960938 10.3125 C 65.753906 12.207031 63.679688 12.691406 61.671875 13.15625 C 61.367188 13.226562 61.066406 13.296875 60.765625 13.371094 C 56.175781 14.472656 54.410156 17.171875 52.546875 20.027344 Z M 68.183594 26.863281 C 69.03125 26.335938 69.980469 25.914062 70.898438 25.507812 C 73.066406 24.542969 75.304688 23.546875 76.242188 21.136719 C 74.550781 23.179688 72.496094 23.507812 70.332031 23.851562 C 67.753906 24.257812 65.09375 24.679688 62.558594 27.957031 C 61.71875 29.046875 60.910156 29.992188 60.128906 30.816406 C 60.4375 31.417969 60.71875 32.042969 60.972656 32.691406 C 61.746094 32.5 62.5 32.273438 63.242188 32.050781 C 63.878906 31.855469 64.507812 31.664062 65.140625 31.5 C 65.609375 30.707031 65.957031 30.027344 66.15625 29.53125 C 66.625 28.347656 67.269531 27.5 68.183594 26.863281 Z M 59.027344 25.242188 C 58.433594 25.6875 57.832031 26.140625 57.203125 26.566406 C 58.253906 27.726562 59.1875 29.039062 59.96875 30.507812 C 60.71875 29.710938 61.496094 28.800781 62.300781 27.757812 C 64.914062 24.378906 67.765625 23.929688 70.277344 23.527344 C 72.339844 23.203125 74.292969 22.894531 75.894531 21.042969 C 74.113281 22.410156 72 22.15625 69.953125 21.90625 C 69.644531 21.871094 69.335938 21.832031 69.027344 21.800781 C 64.339844 21.265625 61.757812 23.195312 59.027344 25.242188 Z M 74.433594 34.917969 C 71.875 34.421875 69.226562 33.90625 65.726562 36.121094 C 64.511719 36.886719 63.386719 37.519531 62.332031 38.039062 C 62.417969 38.683594 62.480469 39.339844 62.519531 40.015625 C 63.34375 40.105469 64.160156 40.152344 64.96875 40.199219 C 65.632812 40.234375 66.289062 40.269531 66.9375 40.328125 C 67.648438 39.746094 68.210938 39.226562 68.566406 38.828125 C 69.414062 37.875 70.308594 37.300781 71.386719 37.015625 C 72.363281 36.8125 73.398438 36.738281 74.402344 36.667969 C 76.769531 36.503906 79.21875 36.335938 80.925781 34.386719 C 78.628906 35.734375 76.589844 35.339844 74.433594 34.917969 Z M 63.335938 32.359375 C 62.601562 32.582031 61.855469 32.808594 61.089844 33 C 61.628906 34.441406 62.035156 36.007812 62.285156 37.699219 C 63.300781 37.191406 64.386719 36.582031 65.550781 35.84375 C 69.164062 33.5625 71.996094 34.113281 74.496094 34.597656 C 76.542969 34.996094 78.484375 35.375 80.621094 34.183594 C 78.480469 34.859375 76.582031 33.898438 74.742188 32.964844 C 74.464844 32.824219 74.1875 32.683594 73.910156 32.546875 C 69.6875 30.4375 66.601562 31.371094 63.335938 32.359375 Z M 80.785156 48.441406 C 80.34375 48.523438 79.925781 48.5625 79.527344 48.5625 C 77.5625 48.5625 76.066406 47.664062 74.5 46.722656 C 72.265625 45.378906 69.957031 43.992188 65.910156 44.871094 C 64.511719 45.175781 63.246094 45.386719 62.078125 45.515625 C 61.949219 46.183594 61.789062 46.832031 61.605469 47.460938 C 62.335938 47.816406 63.074219 48.132812 63.800781 48.445312 C 64.414062 48.707031 65.019531 48.964844 65.609375 49.242188 C 66.476562 48.9375 67.179688 48.640625 67.652344 48.386719 C 68.773438 47.785156 69.8125 47.550781 70.921875 47.652344 C 71.910156 47.792969 72.90625 48.078125 73.875 48.355469 C 76.15625 49.011719 78.515625 49.691406 80.785156 48.441406 Z M 64.949219 40.523438 C 64.15625 40.480469 63.351562 40.433594 62.539062 40.347656 C 62.550781 40.566406 62.558594 40.789062 62.566406 41.011719 C 62.566406 41.015625 62.566406 41.019531 62.566406 41.019531 C 62.527344 42.488281 62.382812 43.871094 62.140625 45.179688 C 63.269531 45.050781 64.496094 44.847656 65.839844 44.554688 C 70.011719 43.644531 72.488281 45.132812 74.667969 46.441406 C 76.457031 47.515625 78.152344 48.535156 80.566406 48.148438 C 78.324219 48.050781 76.871094 46.496094 75.460938 44.992188 C 75.25 44.765625 75.039062 44.539062 74.820312 44.3125 C 71.574219 40.890625 68.355469 40.710938 64.949219 40.523438 Z M 75.855469 61.601562 C 73.226562 61.160156 71.914062 59.546875 70.53125 57.835938 C 68.890625 55.8125 67.191406 53.71875 63.089844 53.160156 C 61.734375 52.976562 60.519531 52.753906 59.421875 52.488281 C 59.054688 53.089844 58.664062 53.664062 58.246094 54.210938 C 58.785156 54.761719 59.339844 55.28125 59.886719 55.796875 C 60.371094 56.25 60.851562 56.703125 61.3125 57.164062 C 62.230469 57.175781 62.996094 57.136719 63.523438 57.058594 C 63.882812 57.007812 64.226562 56.980469 64.554688 56.980469 C 65.382812 56.980469 66.128906 57.148438 66.847656 57.484375 C 67.726562 57.957031 68.570312 58.566406 69.378906 59.160156 C 71.304688 60.558594 73.289062 62 75.855469 61.601562 Z M 63.675781 48.746094 C 62.957031 48.4375 62.234375 48.128906 61.515625 47.777344 C 61.023438 49.390625 60.371094 50.859375 59.59375 52.195312 C 60.65625 52.445312 61.828125 52.660156 63.132812 52.835938 C 67.363281 53.410156 69.179688 55.652344 70.785156 57.632812 C 72.101562 59.257812 73.347656 60.796875 75.761719 61.257812 C 73.675781 60.402344 72.835938 58.441406 72.023438 56.539062 C 71.902344 56.253906 71.78125 55.96875 71.65625 55.683594 C 69.773438 51.355469 66.8125 50.085938 63.675781 48.746094 Z M 64.84375 66.214844 C 64.828125 65.90625 64.8125 65.59375 64.789062 65.285156 C 64.503906 60.574219 62.152344 58.367188 59.664062 56.035156 C 59.121094 55.527344 58.574219 55.015625 58.042969 54.46875 C 57.023438 55.761719 55.867188 56.886719 54.609375 57.855469 C 55.53125 58.460938 56.574219 59.074219 57.753906 59.695312 C 61.535156 61.683594 62.476562 64.410156 63.304688 66.816406 C 63.984375 68.789062 64.628906 70.660156 66.726562 71.917969 C 65.070312 70.398438 64.957031 68.273438 64.84375 66.214844 Z M 66.703125 72.277344 C 64.390625 70.964844 63.710938 69 62.996094 66.921875 C 62.148438 64.457031 61.269531 61.910156 57.601562 59.984375 C 56.371094 59.335938 55.289062 58.699219 54.332031 58.0625 C 53.785156 58.46875 53.222656 58.847656 52.640625 59.191406 C 52.972656 59.9375 53.332031 60.65625 53.691406 61.367188 C 53.992188 61.960938 54.289062 62.546875 54.5625 63.140625 C 55.425781 63.464844 56.15625 63.6875 56.679688 63.796875 C 57.925781 64.054688 58.871094 64.542969 59.65625 65.335938 C 60.324219 66.078125 60.902344 66.9375 61.464844 67.773438 C 62.789062 69.742188 64.164062 71.777344 66.703125 72.277344 Z M 54.460938 79.183594 C 52.734375 77.160156 52.769531 75.082031 52.808594 72.886719 C 52.855469 70.277344 52.902344 67.582031 50.113281 64.519531 C 49.113281 63.417969 48.273438 62.386719 47.558594 61.40625 C 46.949219 61.585938 46.328125 61.742188 45.707031 61.867188 C 45.761719 62.753906 45.863281 63.625 45.96875 64.480469 C 46.046875 65.140625 46.125 65.792969 46.179688 66.445312 C 46.878906 67.042969 47.488281 67.503906 47.941406 67.785156 C 49.023438 68.457031 49.746094 69.238281 50.214844 70.25 C 50.585938 71.175781 50.835938 72.183594 51.078125 73.160156 C 51.652344 75.464844 52.246094 77.84375 54.460938 79.183594 Z M 53.402344 61.511719 C 53.046875 60.8125 52.6875 60.097656 52.359375 59.359375 C 50.9375 60.179688 49.433594 60.828125 47.890625 61.304688 C 48.582031 62.25 49.394531 63.242188 50.355469 64.300781 C 53.230469 67.460938 53.179688 70.34375 53.136719 72.890625 C 53.097656 74.976562 53.066406 76.953125 54.609375 78.851562 C 53.570312 76.863281 54.1875 74.824219 54.789062 72.851562 C 54.878906 72.554688 54.96875 72.257812 55.054688 71.957031 C 56.398438 67.433594 54.941406 64.558594 53.402344 61.511719 Z M 41.199219 75.003906 C 42.132812 72.570312 43.097656 70.050781 41.527344 66.21875 C 40.949219 64.808594 40.503906 63.523438 40.164062 62.335938 C 39.546875 62.3125 38.925781 62.265625 38.300781 62.191406 C 38.042969 63.054688 37.839844 63.914062 37.640625 64.765625 C 37.492188 65.414062 37.339844 66.054688 37.167969 66.683594 C 37.621094 67.484375 38.035156 68.128906 38.367188 68.546875 C 39.15625 69.546875 39.566406 70.527344 39.660156 71.636719 C 39.695312 72.636719 39.585938 73.667969 39.480469 74.667969 C 39.230469 77.03125 38.972656 79.46875 40.59375 81.488281 C 39.667969 78.996094 40.410156 77.054688 41.199219 75.003906 Z M 45.644531 64.519531 C 45.542969 63.671875 45.4375 62.8125 45.386719 61.933594 C 43.925781 62.210938 42.453125 62.351562 40.996094 62.351562 C 40.832031 62.351562 40.671875 62.347656 40.507812 62.34375 C 40.839844 63.496094 41.273438 64.738281 41.828125 66.097656 C 43.449219 70.050781 42.414062 72.742188 41.5 75.121094 C 40.753906 77.066406 40.046875 78.914062 40.847656 81.226562 C 40.550781 79 41.832031 77.296875 43.070312 75.648438 C 43.253906 75.398438 43.441406 75.152344 43.625 74.898438 C 46.433594 71.105469 46.050781 67.90625 45.644531 64.519531 Z M 37.324219 64.691406 C 37.519531 63.851562 37.71875 63.003906 37.972656 62.152344 C 36.375 61.941406 34.78125 61.566406 33.234375 61.015625 C 33.160156 62.175781 33.144531 63.449219 33.199219 64.867188 C 33.371094 69.136719 31.476562 71.3125 29.808594 73.234375 C 28.433594 74.8125 27.132812 76.3125 27.101562 78.769531 C 27.582031 76.566406 29.367188 75.398438 31.097656 74.269531 C 31.359375 74.097656 31.621094 73.929688 31.878906 73.753906 C 35.8125 71.152344 36.546875 68.011719 37.324219 64.691406 Z M 29.5625 73.019531 C 31.273438 71.054688 33.039062 69.019531 32.875 64.882812 C 32.816406 63.414062 32.832031 62.097656 32.914062 60.902344 C 32.304688 60.675781 31.707031 60.421875 31.117188 60.140625 C 30.621094 60.8125 30.167969 61.503906 29.722656 62.1875 C 29.359375 62.742188 29 63.292969 28.621094 63.828125 C 28.773438 64.734375 28.941406 65.480469 29.109375 65.988281 C 29.507812 67.195312 29.558594 68.261719 29.265625 69.332031 C 28.957031 70.285156 28.5 71.214844 28.0625 72.117188 C 27.019531 74.253906 25.941406 76.457031 26.777344 78.910156 C 26.757812 76.25 28.121094 74.679688 29.5625 73.019531 Z M 29.449219 62.007812 C 29.886719 61.335938 30.332031 60.65625 30.816406 59.992188 C 29.386719 59.28125 28.023438 58.40625 26.773438 57.363281 C 26.335938 58.375 25.917969 59.5 25.511719 60.761719 C 24.214844 64.832031 21.691406 66.230469 19.464844 67.464844 C 17.636719 68.476562 15.910156 69.4375 15.035156 71.722656 C 16.242188 69.828125 18.316406 69.34375 20.324219 68.878906 C 20.625 68.808594 20.929688 68.738281 21.230469 68.660156 C 25.820312 67.5625 27.582031 64.863281 29.449219 62.007812 Z M 19.304688 67.179688 C 21.585938 65.917969 23.941406 64.609375 25.203125 60.664062 C 25.621094 59.351562 26.058594 58.1875 26.511719 57.140625 C 25.992188 56.695312 25.492188 56.21875 25.019531 55.710938 C 24.378906 56.144531 23.765625 56.601562 23.164062 57.050781 C 22.628906 57.453125 22.105469 57.84375 21.566406 58.21875 C 21.398438 59.125 21.304688 59.878906 21.285156 60.414062 C 21.25 61.6875 20.933594 62.703125 20.289062 63.613281 C 19.675781 64.402344 18.925781 65.121094 18.203125 65.820312 C 16.492188 67.46875 14.726562 69.171875 14.675781 71.761719 C 15.566406 69.253906 17.382812 68.246094 19.304688 67.179688 Z M 11.664062 58.183594 C 14.238281 57.773438 16.902344 57.351562 19.4375 54.078125 C 20.277344 52.988281 21.085938 52.042969 21.867188 51.21875 C 21.558594 50.617188 21.277344 49.992188 21.023438 49.339844 C 20.25 49.535156 19.496094 49.761719 18.753906 49.984375 C 18.117188 50.179688 17.488281 50.367188 16.855469 50.535156 C 16.386719 51.328125 16.039062 52.007812 15.839844 52.503906 C 15.371094 53.6875 14.722656 54.535156 13.808594 55.167969 C 12.960938 55.695312 12.011719 56.117188 11.09375 56.527344 C 8.929688 57.488281 6.691406 58.488281 5.753906 60.898438 C 7.445312 58.851562 9.5 58.527344 11.664062 58.183594 Z M 22.964844 56.792969 C 23.5625 56.347656 24.164062 55.894531 24.792969 55.464844 C 23.742188 54.304688 22.808594 52.996094 22.027344 51.527344 C 21.273438 52.324219 20.5 53.234375 19.695312 54.277344 C 17.082031 57.65625 14.230469 58.105469 11.714844 58.503906 C 9.65625 58.832031 7.703125 59.140625 6.101562 60.992188 C 7.878906 59.621094 9.996094 59.878906 12.042969 60.125 C 12.351562 60.164062 12.660156 60.203125 12.96875 60.234375 C 17.65625 60.769531 20.234375 58.835938 22.964844 56.792969 Z M 7.5625 47.117188 C 10.121094 47.613281 12.769531 48.125 16.269531 45.914062 C 17.484375 45.148438 18.609375 44.515625 19.664062 43.996094 C 19.578125 43.351562 19.515625 42.695312 19.472656 42.019531 C 18.648438 41.925781 17.832031 41.882812 17.027344 41.835938 C 16.363281 41.800781 15.707031 41.765625 15.054688 41.703125 C 14.34375 42.289062 13.785156 42.808594 13.429688 43.207031 C 12.582031 44.15625 11.683594 44.734375 10.609375 45.015625 C 9.632812 45.222656 8.597656 45.296875 7.59375 45.363281 C 5.226562 45.527344 2.777344 45.699219 1.070312 47.648438 C 3.363281 46.300781 5.40625 46.695312 7.5625 47.117188 Z M 18.660156 49.671875 C 19.394531 49.449219 20.140625 49.226562 20.90625 49.035156 C 20.367188 47.589844 19.960938 46.027344 19.710938 44.335938 C 18.695312 44.839844 17.609375 45.453125 16.441406 46.191406 C 12.832031 48.472656 10 47.921875 7.5 47.4375 C 5.453125 47.039062 3.511719 46.660156 1.371094 47.851562 C 1.875 47.691406 2.363281 47.621094 2.839844 47.621094 C 4.398438 47.621094 5.84375 48.355469 7.25 49.070312 C 7.53125 49.210938 7.808594 49.351562 8.085938 49.488281 C 12.308594 51.597656 15.394531 50.660156 18.660156 49.671875 Z M 17.046875 41.511719 C 17.839844 41.554688 18.644531 41.601562 19.457031 41.6875 C 19.445312 41.46875 19.4375 41.246094 19.429688 41.019531 C 19.46875 39.550781 19.613281 38.164062 19.855469 36.855469 C 18.726562 36.984375 17.5 37.1875 16.15625 37.480469 C 11.980469 38.390625 9.507812 36.902344 7.324219 35.59375 C 5.539062 34.519531 3.84375 33.5 1.429688 33.886719 C 3.671875 33.984375 5.125 35.539062 6.53125 37.042969 C 6.746094 37.269531 6.957031 37.496094 7.171875 37.71875 C 10.421875 41.144531 13.640625 41.324219 17.046875 41.511719 Z M 7.492188 35.3125 C 9.726562 36.65625 12.039062 38.042969 16.085938 37.164062 C 17.480469 36.859375 18.75 36.648438 19.917969 36.519531 C 20.046875 35.851562 20.207031 35.203125 20.390625 34.574219 C 19.660156 34.21875 18.921875 33.902344 18.191406 33.589844 C 17.582031 33.328125 16.976562 33.070312 16.386719 32.789062 C 15.515625 33.097656 14.8125 33.394531 14.34375 33.648438 C 13.222656 34.25 12.183594 34.484375 11.074219 34.382812 C 10.085938 34.242188 9.085938 33.957031 8.121094 33.679688 C 5.839844 33.023438 3.480469 32.34375 1.210938 33.59375 C 3.828125 33.113281 5.609375 34.179688 7.492188 35.3125 Z M 11.464844 24.199219 C 13.105469 26.222656 14.800781 28.316406 18.90625 28.875 C 20.261719 29.058594 21.476562 29.28125 22.578125 29.546875 C 22.941406 28.945312 23.332031 28.371094 23.75 27.824219 C 23.210938 27.273438 22.65625 26.75 22.109375 26.238281 C 21.625 25.78125 21.144531 25.332031 20.683594 24.867188 C 19.761719 24.859375 19 24.898438 18.46875 24.972656 C 17.210938 25.15625 16.15625 25.023438 15.148438 24.546875 C 14.265625 24.078125 13.425781 23.46875 12.613281 22.875 C 10.914062 21.640625 9.164062 20.363281 7.007812 20.363281 C 6.726562 20.363281 6.4375 20.386719 6.140625 20.433594 C 8.769531 20.875 10.082031 22.488281 11.464844 24.199219 Z M 18.320312 33.289062 C 19.039062 33.597656 19.761719 33.90625 20.484375 34.257812 C 20.972656 32.644531 21.625 31.175781 22.402344 29.839844 C 21.339844 29.589844 20.167969 29.375 18.863281 29.195312 C 14.628906 28.625 12.8125 26.382812 11.210938 24.402344 C 9.894531 22.777344 8.648438 21.234375 6.230469 20.777344 C 8.320312 21.632812 9.160156 23.59375 9.96875 25.496094 C 10.09375 25.78125 10.214844 26.066406 10.339844 26.351562 C 12.222656 30.679688 15.183594 31.949219 18.320312 33.289062 Z M 17.152344 15.820312 C 17.167969 16.128906 17.183594 16.441406 17.207031 16.75 C 17.492188 21.460938 19.84375 23.664062 22.332031 26 C 22.875 26.507812 23.421875 27.019531 23.953125 27.566406 C 24.972656 26.273438 26.128906 25.148438 27.386719 24.179688 C 26.460938 23.570312 25.421875 22.960938 24.238281 22.339844 C 20.460938 20.351562 19.519531 17.625 18.691406 15.21875 C 18.011719 13.246094 17.367188 11.375 15.265625 10.117188 C 16.921875 11.632812 17.039062 13.761719 17.152344 15.820312 Z M 15.292969 9.753906 C 17.605469 11.070312 18.285156 13.035156 19 15.113281 C 19.847656 17.574219 20.726562 20.125 24.390625 22.050781 C 25.625 22.699219 26.707031 23.335938 27.664062 23.972656 C 28.210938 23.566406 28.773438 23.1875 29.351562 22.839844 C 29.023438 22.097656 28.660156 21.378906 28.300781 20.667969 C 28.003906 20.074219 27.707031 19.488281 27.429688 18.894531 C 26.570312 18.570312 25.839844 18.347656 25.316406 18.238281 C 24.070312 17.980469 23.125 17.492188 22.339844 16.699219 C 21.671875 15.957031 21.09375 15.097656 20.53125 14.261719 C 19.203125 12.292969 17.832031 10.257812 15.292969 9.753906 Z M 27.535156 2.847656 C 29.257812 4.875 29.222656 6.953125 29.1875 9.148438 C 29.140625 11.757812 29.09375 14.449219 31.878906 17.515625 C 32.882812 18.617188 33.722656 19.648438 34.433594 20.628906 C 35.046875 20.449219 35.664062 20.292969 36.285156 20.164062 C 36.234375 19.277344 36.132812 18.410156 36.027344 17.554688 C 35.949219 16.894531 35.871094 16.242188 35.816406 15.589844 C 35.117188 14.988281 34.507812 14.53125 34.054688 14.246094 C 32.96875 13.578125 32.25 12.796875 31.78125 11.785156 C 31.410156 10.859375 31.15625 9.851562 30.914062 8.875 C 30.34375 6.570312 29.75 4.191406 27.535156 2.847656 Z M 28.59375 20.519531 C 28.949219 21.222656 29.308594 21.9375 29.636719 22.675781 C 31.054688 21.855469 32.558594 21.207031 34.105469 20.726562 C 33.414062 19.785156 32.601562 18.792969 31.640625 17.734375 C 28.765625 14.574219 28.816406 11.691406 28.859375 9.144531 C 28.894531 7.058594 28.929688 5.078125 27.386719 3.179688 C 28.425781 5.171875 27.804688 7.210938 27.207031 9.183594 C 27.117188 9.480469 27.027344 9.777344 26.941406 10.078125 C 25.597656 14.601562 27.054688 17.476562 28.59375 20.519531 Z M 40.796875 7.03125 C 39.863281 9.464844 38.898438 11.980469 40.46875 15.8125 C 41.046875 17.226562 41.492188 18.511719 41.828125 19.699219 C 43.632812 19.765625 45.457031 20.039062 47.234375 20.535156 C 46.019531 17.363281 44.523438 14.621094 43.628906 13.488281 C 42.839844 12.488281 42.429688 11.503906 42.335938 10.394531 C 42.300781 9.398438 42.410156 8.367188 42.515625 7.367188 C 42.765625 5.003906 43.023438 2.5625 41.402344 0.546875 C 42.328125 3.039062 41.585938 4.980469 40.796875 7.03125 Z M 36.351562 17.515625 C 36.453125 18.363281 36.554688 19.222656 36.609375 20.101562 C 38.066406 19.820312 39.542969 19.683594 40.996094 19.683594 L 41 19.683594 C 41.160156 19.683594 41.324219 19.683594 41.488281 19.6875 C 41.15625 18.539062 40.722656 17.296875 40.167969 15.9375 C 38.546875 11.984375 39.582031 9.292969 40.492188 6.914062 C 41.242188 4.964844 41.949219 3.121094 41.148438 0.808594 C 41.441406 3.035156 40.164062 4.738281 38.925781 6.386719 C 38.738281 6.632812 38.554688 6.882812 38.371094 7.132812 C 35.5625 10.925781 35.945312 14.128906 36.351562 17.515625 Z M 40.996094 59.652344 C 49.84375 59.652344 59.511719 53.820312 59.839844 41.015625 C 59.515625 28.214844 49.847656 22.382812 41 22.382812 C 32.152344 22.382812 22.480469 28.214844 22.15625 41.019531 C 22.476562 53.820312 32.148438 59.652344 40.996094 59.652344 Z M 40.996094 59.652344 " fill-opacity="1" fill-rule="nonzero"/><g clip-path="url(#6bac616a77)"><path fill="#43241e" d="M 81.273438 48.171875 C 81.269531 48.15625 81.261719 48.140625 81.253906 48.128906 C 81.191406 47.945312 81.03125 47.824219 80.84375 47.828125 C 80.824219 47.828125 80.808594 47.828125 80.789062 47.828125 C 78.5625 47.828125 77.171875 46.339844 75.699219 44.769531 C 75.488281 44.539062 75.273438 44.3125 75.058594 44.089844 C 72.507812 41.398438 69.988281 40.660156 67.390625 40.375 C 68 39.863281 68.488281 39.40625 68.808594 39.042969 C 69.613281 38.144531 70.457031 37.601562 71.460938 37.335938 C 72.40625 37.136719 73.433594 37.0625 74.421875 36.996094 C 76.894531 36.824219 79.449219 36.648438 81.246094 34.511719 C 81.382812 34.375 81.402344 34.175781 81.304688 34 C 81.300781 33.988281 81.300781 33.976562 81.292969 33.964844 C 81.28125 33.949219 81.269531 33.941406 81.257812 33.929688 C 81.136719 33.78125 80.941406 33.722656 80.769531 33.789062 C 78.65625 34.582031 76.828125 33.65625 74.890625 32.671875 C 74.613281 32.53125 74.332031 32.390625 74.054688 32.253906 C 70.738281 30.597656 68.117188 30.765625 65.578125 31.386719 C 65.976562 30.695312 66.277344 30.097656 66.457031 29.652344 C 66.902344 28.53125 67.511719 27.730469 68.363281 27.136719 C 69.1875 26.625 70.125 26.207031 71.03125 25.804688 C 73.296875 24.800781 75.636719 23.757812 76.59375 21.136719 C 76.675781 20.964844 76.625 20.765625 76.476562 20.636719 C 76.464844 20.625 76.460938 20.617188 76.449219 20.609375 C 76.4375 20.597656 76.421875 20.59375 76.40625 20.589844 C 76.242188 20.488281 76.039062 20.5 75.898438 20.621094 C 74.183594 22.09375 72.148438 21.84375 69.992188 21.585938 C 69.683594 21.546875 69.371094 21.507812 69.0625 21.476562 C 65.378906 21.054688 62.976562 22.109375 60.804688 23.558594 C 60.941406 22.773438 61.019531 22.109375 61.035156 21.628906 C 61.070312 20.421875 61.367188 19.460938 61.964844 18.613281 C 62.5625 17.851562 63.304688 17.140625 64.019531 16.449219 C 65.800781 14.730469 67.644531 12.953125 67.648438 10.160156 C 67.664062 9.96875 67.550781 9.800781 67.363281 9.730469 C 67.355469 9.726562 67.34375 9.71875 67.332031 9.714844 C 67.316406 9.707031 67.300781 9.707031 67.285156 9.707031 C 67.09375 9.671875 66.90625 9.753906 66.816406 9.914062 C 65.710938 11.882812 63.710938 12.347656 61.597656 12.839844 C 61.292969 12.910156 60.988281 12.980469 60.6875 13.054688 C 57.082031 13.917969 55.183594 15.730469 53.636719 17.839844 C 53.5 17.050781 53.347656 16.402344 53.195312 15.945312 C 52.816406 14.796875 52.769531 13.796875 53.039062 12.792969 C 53.339844 11.875 53.792969 10.949219 54.226562 10.058594 C 55.316406 7.832031 56.4375 5.53125 55.488281 2.90625 C 55.4375 2.722656 55.269531 2.601562 55.074219 2.601562 C 55.058594 2.597656 55.046875 2.59375 55.035156 2.59375 C 55.019531 2.59375 55.003906 2.601562 54.992188 2.605469 C 54.800781 2.636719 54.652344 2.777344 54.625 2.960938 C 54.253906 5.1875 52.535156 6.308594 50.71875 7.492188 C 50.457031 7.664062 50.191406 7.835938 49.9375 8.007812 C 46.84375 10.050781 45.679688 12.40625 44.949219 14.914062 C 44.546875 14.222656 44.183594 13.664062 43.882812 13.285156 C 43.136719 12.335938 42.746094 11.410156 42.660156 10.378906 C 42.628906 9.410156 42.734375 8.386719 42.839844 7.402344 C 43.101562 4.9375 43.371094 2.390625 41.582031 0.25 C 41.46875 0.09375 41.273438 0.0390625 41.085938 0.101562 C 41.074219 0.105469 41.058594 0.105469 41.046875 0.109375 C 41.03125 0.117188 41.019531 0.128906 41.007812 0.136719 C 40.839844 0.230469 40.75 0.410156 40.785156 0.59375 C 41.199219 2.816406 39.96875 4.453125 38.664062 6.191406 C 38.476562 6.441406 38.289062 6.691406 38.105469 6.941406 C 35.902344 9.921875 35.609375 12.53125 35.78125 15.136719 C 35.171875 14.625 34.636719 14.222656 34.222656 13.96875 C 33.199219 13.335938 32.515625 12.597656 32.082031 11.65625 C 31.71875 10.757812 31.472656 9.761719 31.230469 8.796875 C 30.632812 6.394531 30.015625 3.90625 27.601562 2.507812 C 27.441406 2.398438 27.242188 2.414062 27.085938 2.539062 C 27.074219 2.546875 27.0625 2.550781 27.054688 2.558594 C 27.042969 2.570312 27.035156 2.585938 27.027344 2.597656 C 26.898438 2.742188 26.875 2.945312 26.972656 3.105469 C 28.121094 5.046875 27.527344 7.011719 26.894531 9.085938 C 26.804688 9.386719 26.710938 9.6875 26.628906 9.984375 C 25.574219 13.539062 26.191406 16.089844 27.246094 18.480469 C 26.496094 18.207031 25.855469 18.015625 25.382812 17.917969 C 24.199219 17.671875 23.308594 17.210938 22.578125 16.476562 C 21.929688 15.757812 21.355469 14.902344 20.800781 14.082031 C 19.417969 12.027344 17.988281 9.902344 15.238281 9.414062 C 15.050781 9.363281 14.867188 9.445312 14.765625 9.617188 C 14.757812 9.628906 14.746094 9.636719 14.742188 9.648438 C 14.734375 9.664062 14.730469 9.679688 14.730469 9.691406 C 14.660156 9.875 14.707031 10.070312 14.851562 10.1875 C 16.597656 11.621094 16.707031 13.667969 16.824219 15.835938 C 16.839844 16.148438 16.859375 16.460938 16.878906 16.773438 C 17.105469 20.472656 18.558594 22.65625 20.367188 24.542969 C 19.566406 24.542969 18.902344 24.582031 18.421875 24.652344 C 17.230469 24.824219 16.234375 24.699219 15.292969 24.257812 C 14.441406 23.800781 13.609375 23.199219 12.804688 22.613281 C 10.804688 21.15625 8.730469 19.648438 5.984375 20.128906 C 5.792969 20.148438 5.644531 20.289062 5.609375 20.484375 C 5.605469 20.496094 5.597656 20.507812 5.597656 20.519531 C 5.59375 20.535156 5.597656 20.550781 5.601562 20.566406 C 5.597656 20.761719 5.707031 20.929688 5.882812 20.992188 C 8.015625 21.738281 8.820312 23.625 9.671875 25.625 C 9.792969 25.910156 9.914062 26.199219 10.042969 26.484375 C 11.519531 29.882812 13.632812 31.4375 15.976562 32.59375 C 15.226562 32.867188 14.613281 33.128906 14.1875 33.359375 C 13.125 33.929688 12.144531 34.152344 11.113281 34.058594 C 10.152344 33.921875 9.167969 33.640625 8.210938 33.363281 C 5.832031 32.679688 3.371094 31.972656 0.949219 33.363281 C 0.777344 33.449219 0.6875 33.628906 0.71875 33.824219 C 0.71875 33.839844 0.71875 33.851562 0.722656 33.863281 C 0.726562 33.878906 0.734375 33.894531 0.742188 33.90625 C 0.804688 34.089844 0.964844 34.210938 1.152344 34.207031 C 1.171875 34.207031 1.1875 34.207031 1.207031 34.207031 C 3.433594 34.207031 4.824219 35.695312 6.292969 37.265625 C 6.507812 37.496094 6.722656 37.722656 6.9375 37.945312 C 9.488281 40.636719 12.007812 41.375 14.605469 41.660156 C 13.992188 42.171875 13.507812 42.628906 13.183594 42.992188 C 12.382812 43.890625 11.539062 44.433594 10.535156 44.699219 C 9.585938 44.898438 8.5625 44.972656 7.570312 45.039062 C 5.101562 45.210938 2.542969 45.386719 0.746094 47.523438 C 0.613281 47.660156 0.59375 47.863281 0.6875 48.035156 C 0.691406 48.046875 0.695312 48.058594 0.703125 48.070312 C 0.714844 48.085938 0.726562 48.097656 0.738281 48.109375 C 0.863281 48.253906 1.054688 48.3125 1.226562 48.246094 C 3.339844 47.449219 5.167969 48.378906 7.105469 49.363281 C 7.382812 49.503906 7.664062 49.644531 7.941406 49.78125 C 9.867188 50.742188 11.558594 51.089844 13.136719 51.089844 C 14.273438 51.089844 15.351562 50.90625 16.414062 50.648438 C 16.015625 51.339844 15.714844 51.9375 15.535156 52.382812 C 15.089844 53.503906 14.484375 54.304688 13.628906 54.898438 C 12.808594 55.410156 11.871094 55.824219 10.960938 56.230469 C 8.699219 57.234375 6.359375 58.273438 5.398438 60.898438 C 5.320312 61.070312 5.367188 61.269531 5.519531 61.398438 C 5.527344 61.40625 5.535156 61.417969 5.546875 61.425781 C 5.5625 61.4375 5.578125 61.445312 5.59375 61.453125 C 5.667969 61.492188 5.746094 61.515625 5.820312 61.515625 C 5.921875 61.515625 6.019531 61.480469 6.097656 61.414062 C 7.8125 59.941406 9.847656 60.1875 12 60.449219 C 12.3125 60.488281 12.625 60.527344 12.929688 60.558594 C 16.613281 60.980469 19.019531 59.925781 21.191406 58.476562 C 21.054688 59.261719 20.972656 59.921875 20.960938 60.40625 C 20.925781 61.613281 20.625 62.570312 20.027344 63.421875 C 19.429688 64.183594 18.691406 64.894531 17.976562 65.585938 C 16.195312 67.304688 14.351562 69.082031 14.34375 71.875 C 14.332031 72.066406 14.445312 72.234375 14.628906 72.304688 C 14.640625 72.308594 14.652344 72.316406 14.664062 72.320312 C 14.679688 72.328125 14.695312 72.328125 14.710938 72.328125 C 14.714844 72.328125 14.714844 72.328125 14.71875 72.328125 C 14.746094 72.332031 14.773438 72.335938 14.800781 72.335938 C 14.957031 72.335938 15.101562 72.257812 15.175781 72.121094 C 16.285156 70.152344 18.28125 69.6875 20.398438 69.195312 C 20.703125 69.125 21.007812 69.054688 21.308594 68.980469 C 24.914062 68.113281 26.8125 66.304688 28.355469 64.195312 C 28.496094 64.984375 28.648438 65.632812 28.800781 66.089844 C 29.179688 67.234375 29.226562 68.238281 28.953125 69.242188 C 28.65625 70.160156 28.203125 71.082031 27.765625 71.976562 C 26.679688 74.203125 25.554688 76.503906 26.503906 79.128906 C 26.558594 79.316406 26.726562 79.4375 26.925781 79.4375 C 26.933594 79.4375 26.941406 79.441406 26.949219 79.441406 C 26.953125 79.441406 26.957031 79.441406 26.960938 79.441406 C 26.976562 79.4375 26.988281 79.433594 27.003906 79.429688 C 27.195312 79.398438 27.34375 79.257812 27.371094 79.074219 C 27.738281 76.847656 29.457031 75.726562 31.277344 74.542969 C 31.539062 74.371094 31.800781 74.199219 32.058594 74.027344 C 35.152344 71.980469 36.316406 69.628906 37.046875 67.121094 C 37.445312 67.8125 37.8125 68.371094 38.109375 68.75 C 38.859375 69.699219 39.246094 70.625 39.335938 71.65625 C 39.367188 72.625 39.257812 73.648438 39.152344 74.632812 C 38.894531 77.097656 38.625 79.644531 40.414062 81.785156 C 40.496094 81.898438 40.621094 81.960938 40.753906 81.960938 C 40.804688 81.960938 40.851562 81.949219 40.902344 81.933594 C 40.917969 81.933594 40.933594 81.929688 40.945312 81.925781 C 40.960938 81.917969 40.972656 81.90625 40.984375 81.898438 C 41.152344 81.804688 41.246094 81.625 41.210938 81.441406 C 40.792969 79.21875 42.027344 77.582031 43.328125 75.84375 C 43.515625 75.59375 43.707031 75.34375 43.886719 75.09375 C 46.09375 72.113281 46.382812 69.503906 46.210938 66.898438 C 46.824219 67.410156 47.359375 67.8125 47.769531 68.066406 C 48.796875 68.699219 49.480469 69.4375 49.914062 70.378906 C 50.273438 71.277344 50.523438 72.273438 50.761719 73.238281 C 51.359375 75.640625 51.976562 78.128906 54.394531 79.527344 C 54.464844 79.578125 54.546875 79.601562 54.628906 79.601562 C 54.722656 79.601562 54.820312 79.566406 54.902344 79.5 C 54.914062 79.492188 54.929688 79.484375 54.941406 79.476562 C 54.953125 79.464844 54.960938 79.449219 54.96875 79.4375 C 55.09375 79.292969 55.117188 79.089844 55.023438 78.929688 C 53.871094 76.988281 54.46875 75.023438 55.101562 72.949219 C 55.191406 72.648438 55.28125 72.347656 55.367188 72.050781 C 56.421875 68.496094 55.800781 65.945312 54.75 63.554688 C 55.5 63.828125 56.140625 64.019531 56.613281 64.117188 C 57.792969 64.363281 58.6875 64.824219 59.417969 65.558594 C 60.066406 66.277344 60.640625 67.132812 61.195312 67.953125 C 62.578125 70.007812 64.007812 72.132812 66.757812 72.625 C 66.792969 72.632812 66.828125 72.636719 66.863281 72.636719 C 67.003906 72.636719 67.132812 72.5625 67.214844 72.433594 C 67.230469 72.421875 67.242188 72.40625 67.253906 72.386719 C 67.261719 72.371094 67.261719 72.355469 67.265625 72.34375 C 67.335938 72.160156 67.289062 71.964844 67.144531 71.847656 C 65.398438 70.414062 65.289062 68.367188 65.171875 66.199219 C 65.152344 65.886719 65.136719 65.574219 65.113281 65.265625 C 64.890625 61.5625 63.4375 59.378906 61.628906 57.492188 C 62.429688 57.492188 63.09375 57.453125 63.570312 57.382812 C 64.765625 57.210938 65.761719 57.335938 66.703125 57.777344 C 67.554688 58.234375 68.386719 58.839844 69.1875 59.421875 C 70.933594 60.691406 72.726562 61.996094 74.976562 61.996094 C 75.3125 61.996094 75.65625 61.96875 76.011719 61.90625 C 76.203125 61.886719 76.347656 61.75 76.386719 61.558594 C 76.390625 61.542969 76.398438 61.53125 76.398438 61.515625 C 76.402344 61.5 76.398438 61.484375 76.394531 61.46875 C 76.398438 61.277344 76.289062 61.105469 76.109375 61.046875 C 73.980469 60.296875 73.175781 58.410156 72.324219 56.414062 C 72.203125 56.125 72.078125 55.835938 71.953125 55.554688 C 70.476562 52.152344 68.363281 50.597656 66.019531 49.441406 C 66.769531 49.167969 67.382812 48.90625 67.808594 48.675781 C 68.871094 48.105469 69.847656 47.882812 70.882812 47.976562 C 71.839844 48.113281 72.828125 48.398438 73.785156 48.671875 C 76.164062 49.355469 78.625 50.0625 81.046875 48.671875 C 81.21875 48.589844 81.308594 48.40625 81.273438 48.210938 C 81.273438 48.195312 81.277344 48.183594 81.273438 48.171875 Z M 70.921875 47.652344 C 69.8125 47.550781 68.773438 47.785156 67.652344 48.386719 C 67.179688 48.640625 66.476562 48.9375 65.609375 49.242188 C 65.019531 48.964844 64.414062 48.707031 63.800781 48.445312 C 63.074219 48.132812 62.335938 47.816406 61.609375 47.460938 C 61.789062 46.832031 61.949219 46.183594 62.078125 45.515625 C 63.246094 45.386719 64.515625 45.175781 65.910156 44.871094 C 69.957031 43.992188 72.265625 45.378906 74.5 46.722656 C 76.066406 47.664062 77.5625 48.5625 79.527344 48.5625 C 79.925781 48.5625 80.34375 48.523438 80.785156 48.441406 C 78.515625 49.691406 76.15625 49.011719 73.875 48.355469 C 72.90625 48.078125 71.910156 47.792969 70.921875 47.652344 Z M 71.652344 55.683594 C 71.78125 55.96875 71.902344 56.253906 72.023438 56.539062 C 72.835938 58.441406 73.675781 60.402344 75.761719 61.257812 C 73.347656 60.796875 72.101562 59.257812 70.78125 57.632812 C 69.179688 55.652344 67.363281 53.410156 63.132812 52.835938 C 61.828125 52.660156 60.65625 52.445312 59.59375 52.195312 C 60.371094 50.859375 61.023438 49.390625 61.511719 47.777344 C 62.234375 48.128906 62.957031 48.4375 63.675781 48.746094 C 66.8125 50.085938 69.773438 51.355469 71.652344 55.683594 Z M 66.847656 57.484375 C 66.128906 57.148438 65.382812 56.980469 64.554688 56.980469 C 64.226562 56.980469 63.882812 57.007812 63.523438 57.058594 C 62.996094 57.136719 62.230469 57.175781 61.3125 57.164062 C 60.851562 56.703125 60.371094 56.25 59.886719 55.796875 C 59.339844 55.28125 58.785156 54.761719 58.246094 54.210938 C 58.664062 53.664062 59.054688 53.089844 59.421875 52.488281 C 60.519531 52.753906 61.734375 52.976562 63.089844 53.160156 C 67.191406 53.71875 68.890625 55.8125 70.53125 57.835938 C 71.914062 59.546875 73.226562 61.160156 75.855469 61.601562 C 73.289062 62 71.304688 60.558594 69.378906 59.160156 C 68.570312 58.566406 67.730469 57.957031 66.847656 57.484375 Z M 59.65625 65.335938 C 58.871094 64.542969 57.925781 64.054688 56.679688 63.796875 C 56.15625 63.6875 55.425781 63.464844 54.5625 63.140625 C 54.289062 62.546875 53.992188 61.960938 53.691406 61.367188 C 53.332031 60.65625 52.972656 59.9375 52.640625 59.191406 C 53.222656 58.847656 53.785156 58.46875 54.332031 58.0625 C 55.289062 58.699219 56.371094 59.335938 57.601562 59.984375 C 61.269531 61.910156 62.148438 64.457031 62.996094 66.921875 C 63.710938 69 64.390625 70.964844 66.703125 72.277344 C 64.164062 71.777344 62.789062 69.742188 61.464844 67.773438 C 60.902344 66.9375 60.324219 66.078125 59.65625 65.335938 Z M 54.789062 72.851562 C 54.1875 74.824219 53.570312 76.863281 54.609375 78.851562 C 53.066406 76.953125 53.097656 74.976562 53.136719 72.890625 C 53.179688 70.34375 53.230469 67.460938 50.355469 64.300781 C 49.394531 63.242188 48.582031 62.25 47.890625 61.304688 C 49.433594 60.828125 50.9375 60.179688 52.359375 59.359375 C 52.6875 60.097656 53.046875 60.8125 53.402344 61.511719 C 54.941406 64.558594 56.398438 67.433594 55.054688 71.957031 C 54.96875 72.257812 54.878906 72.554688 54.789062 72.851562 Z M 50.214844 70.25 C 49.746094 69.238281 49.023438 68.457031 47.941406 67.785156 C 47.488281 67.503906 46.878906 67.042969 46.179688 66.445312 C 46.125 65.792969 46.046875 65.140625 45.96875 64.480469 C 45.863281 63.625 45.761719 62.753906 45.707031 61.867188 C 46.332031 61.742188 46.949219 61.585938 47.558594 61.40625 C 48.273438 62.386719 49.113281 63.417969 50.113281 64.519531 C 52.902344 67.582031 52.855469 70.277344 52.808594 72.886719 C 52.769531 75.082031 52.734375 77.160156 54.460938 79.183594 C 52.246094 77.84375 51.652344 75.464844 51.078125 73.160156 C 50.835938 72.183594 50.585938 71.175781 50.214844 70.25 Z M 43.625 74.898438 C 43.441406 75.152344 43.253906 75.398438 43.070312 75.648438 C 41.832031 77.296875 40.550781 79 40.847656 81.226562 C 40.046875 78.914062 40.753906 77.066406 41.5 75.121094 C 42.414062 72.742188 43.449219 70.046875 41.828125 66.097656 C 41.273438 64.738281 40.839844 63.496094 40.507812 62.34375 C 40.671875 62.347656 40.835938 62.351562 40.996094 62.351562 C 42.453125 62.351562 43.925781 62.210938 45.386719 61.933594 C 45.4375 62.8125 45.542969 63.671875 45.644531 64.519531 C 46.050781 67.90625 46.433594 71.105469 43.625 74.898438 Z M 39.480469 74.667969 C 39.585938 73.667969 39.695312 72.636719 39.660156 71.636719 C 39.566406 70.527344 39.15625 69.546875 38.367188 68.546875 C 38.035156 68.128906 37.621094 67.484375 37.167969 66.683594 C 37.339844 66.054688 37.492188 65.414062 37.640625 64.765625 C 37.839844 63.914062 38.042969 63.054688 38.300781 62.191406 C 38.925781 62.265625 39.546875 62.3125 40.164062 62.335938 C 40.503906 63.523438 40.949219 64.808594 41.527344 66.21875 C 43.097656 70.050781 42.132812 72.570312 41.199219 75.003906 C 40.410156 77.054688 39.667969 78.996094 40.59375 81.488281 C 38.972656 79.46875 39.230469 77.03125 39.480469 74.667969 Z M 31.097656 74.269531 C 29.367188 75.398438 27.582031 76.566406 27.101562 78.769531 C 27.132812 76.3125 28.433594 74.8125 29.808594 73.234375 C 31.476562 71.3125 33.371094 69.136719 33.199219 64.867188 C 33.144531 63.453125 33.160156 62.175781 33.234375 61.015625 C 34.777344 61.566406 36.375 61.941406 37.972656 62.152344 C 37.71875 63.003906 37.519531 63.851562 37.324219 64.691406 C 36.546875 68.015625 35.8125 71.152344 31.878906 73.753906 C 31.621094 73.929688 31.359375 74.097656 31.097656 74.269531 Z M 28.0625 72.121094 C 28.5 71.214844 28.957031 70.285156 29.269531 69.335938 C 29.558594 68.261719 29.507812 67.195312 29.109375 65.988281 C 28.941406 65.480469 28.773438 64.734375 28.621094 63.828125 C 29 63.292969 29.359375 62.742188 29.722656 62.1875 C 30.167969 61.503906 30.621094 60.8125 31.117188 60.140625 C 31.707031 60.421875 32.304688 60.675781 32.914062 60.902344 C 32.832031 62.097656 32.816406 63.414062 32.875 64.882812 C 33.039062 69.019531 31.273438 71.054688 29.5625 73.023438 C 28.121094 74.679688 26.757812 76.25 26.777344 78.910156 C 25.941406 76.457031 27.019531 74.253906 28.0625 72.121094 Z M 20.324219 68.878906 C 18.316406 69.34375 16.242188 69.828125 15.035156 71.722656 C 15.910156 69.4375 17.636719 68.476562 19.464844 67.464844 C 21.691406 66.230469 24.214844 64.832031 25.511719 60.761719 C 25.917969 59.5 26.335938 58.375 26.773438 57.363281 C 28.023438 58.40625 29.386719 59.28125 30.816406 59.992188 C 30.332031 60.65625 29.886719 61.335938 29.449219 62.007812 C 27.582031 64.863281 25.820312 67.5625 21.230469 68.660156 C 20.929688 68.738281 20.625 68.808594 20.324219 68.878906 Z M 18.203125 65.820312 C 18.925781 65.121094 19.675781 64.402344 20.289062 63.613281 C 20.933594 62.707031 21.25 61.6875 21.285156 60.417969 C 21.304688 59.882812 21.398438 59.125 21.566406 58.21875 C 22.105469 57.84375 22.628906 57.453125 23.164062 57.054688 C 23.765625 56.601562 24.378906 56.144531 25.019531 55.710938 C 25.492188 56.21875 25.992188 56.695312 26.511719 57.144531 C 26.058594 58.1875 25.621094 59.351562 25.203125 60.664062 C 23.941406 64.609375 21.585938 65.917969 19.304688 67.179688 C 17.382812 68.246094 15.566406 69.253906 14.675781 71.761719 C 14.730469 69.171875 16.496094 67.46875 18.203125 65.820312 Z M 6.101562 60.992188 C 7.703125 59.140625 9.65625 58.832031 11.714844 58.503906 C 14.230469 58.105469 17.082031 57.65625 19.695312 54.277344 C 20.5 53.234375 21.273438 52.324219 22.027344 51.527344 C 22.808594 52.996094 23.742188 54.304688 24.792969 55.464844 C 24.164062 55.894531 23.5625 56.347656 22.964844 56.792969 C 20.234375 58.835938 17.65625 60.769531 12.96875 60.234375 C 12.660156 60.203125 12.351562 60.164062 12.042969 60.125 C 9.996094 59.878906 7.878906 59.621094 6.101562 60.992188 Z M 11.09375 56.527344 C 12.011719 56.117188 12.960938 55.699219 13.808594 55.167969 C 14.722656 54.535156 15.371094 53.6875 15.839844 52.503906 C 16.039062 52.007812 16.386719 51.328125 16.855469 50.535156 C 17.488281 50.367188 18.117188 50.179688 18.753906 49.984375 C 19.496094 49.761719 20.25 49.535156 21.023438 49.339844 C 21.277344 49.992188 21.558594 50.617188 21.867188 51.21875 C 21.085938 52.042969 20.277344 52.988281 19.4375 54.078125 C 16.902344 57.351562 14.238281 57.773438 11.664062 58.183594 C 9.5 58.527344 7.445312 58.851562 5.753906 60.898438 C 6.691406 58.488281 8.929688 57.492188 11.09375 56.527344 Z M 8.085938 49.488281 C 7.808594 49.351562 7.53125 49.210938 7.253906 49.070312 C 5.84375 48.355469 4.402344 47.621094 2.839844 47.621094 C 2.363281 47.621094 1.875 47.691406 1.375 47.851562 C 3.511719 46.660156 5.453125 47.039062 7.5 47.4375 C 10 47.921875 12.832031 48.472656 16.445312 46.191406 C 17.609375 45.453125 18.695312 44.839844 19.710938 44.335938 C 19.960938 46.027344 20.367188 47.589844 20.90625 49.035156 C 20.140625 49.226562 19.394531 49.449219 18.660156 49.671875 C 15.394531 50.660156 12.308594 51.597656 8.085938 49.488281 Z M 7.59375 45.363281 C 8.597656 45.296875 9.632812 45.222656 10.609375 45.015625 C 11.6875 44.734375 12.582031 44.160156 13.429688 43.207031 C 13.785156 42.808594 14.34375 42.289062 15.054688 41.703125 C 15.707031 41.765625 16.363281 41.800781 17.027344 41.835938 C 17.832031 41.882812 18.648438 41.925781 19.476562 42.019531 C 19.515625 42.695312 19.578125 43.355469 19.664062 43.996094 C 18.609375 44.515625 17.484375 45.148438 16.269531 45.914062 C 12.769531 48.125 10.121094 47.613281 7.5625 47.117188 C 5.40625 46.695312 3.367188 46.300781 1.070312 47.648438 C 2.777344 45.699219 5.226562 45.527344 7.59375 45.363281 Z M 1.429688 33.886719 C 3.84375 33.5 5.539062 34.519531 7.324219 35.59375 C 9.507812 36.902344 11.980469 38.390625 16.15625 37.480469 C 17.5 37.1875 18.726562 36.984375 19.855469 36.855469 C 19.613281 38.164062 19.46875 39.550781 19.429688 41.019531 C 19.4375 41.246094 19.445312 41.46875 19.453125 41.6875 C 18.644531 41.601562 17.839844 41.554688 17.046875 41.511719 C 13.636719 41.324219 10.421875 41.144531 7.171875 37.71875 C 6.957031 37.496094 6.746094 37.269531 6.53125 37.042969 C 5.125 35.539062 3.671875 33.984375 1.429688 33.886719 Z M 8.121094 33.679688 C 9.085938 33.957031 10.085938 34.242188 11.074219 34.382812 C 12.183594 34.484375 13.222656 34.25 14.34375 33.648438 C 14.8125 33.394531 15.515625 33.097656 16.386719 32.789062 C 16.976562 33.070312 17.582031 33.328125 18.191406 33.589844 C 18.921875 33.902344 19.660156 34.21875 20.390625 34.574219 C 20.207031 35.203125 20.046875 35.851562 19.917969 36.519531 C 18.75 36.648438 17.480469 36.859375 16.085938 37.164062 C 12.039062 38.042969 9.726562 36.65625 7.492188 35.3125 C 5.609375 34.179688 3.828125 33.113281 1.210938 33.59375 C 3.480469 32.34375 5.839844 33.023438 8.121094 33.679688 Z M 10.339844 26.351562 C 10.214844 26.066406 10.09375 25.78125 9.96875 25.496094 C 9.160156 23.59375 8.320312 21.632812 6.230469 20.777344 C 8.648438 21.234375 9.894531 22.777344 11.210938 24.402344 C 12.8125 26.382812 14.628906 28.625 18.863281 29.199219 C 20.167969 29.375 21.339844 29.589844 22.402344 29.839844 C 21.625 31.175781 20.972656 32.644531 20.484375 34.257812 C 19.761719 33.90625 19.039062 33.597656 18.320312 33.289062 C 15.183594 31.949219 12.222656 30.679688 10.339844 26.351562 Z M 7.007812 20.363281 C 9.164062 20.363281 10.914062 21.640625 12.613281 22.875 C 13.425781 23.46875 14.265625 24.078125 15.148438 24.546875 C 16.15625 25.023438 17.210938 25.15625 18.46875 24.972656 C 19 24.898438 19.761719 24.859375 20.683594 24.867188 C 21.144531 25.332031 21.625 25.78125 22.109375 26.238281 C 22.65625 26.753906 23.210938 27.273438 23.75 27.824219 C 23.332031 28.371094 22.941406 28.945312 22.578125 29.546875 C 21.476562 29.28125 20.261719 29.058594 18.90625 28.875 C 14.800781 28.316406 13.105469 26.222656 11.464844 24.199219 C 10.082031 22.488281 8.769531 20.875 6.140625 20.433594 C 6.4375 20.386719 6.726562 20.363281 7.007812 20.363281 Z M 22.339844 16.699219 C 23.125 17.492188 24.070312 17.980469 25.316406 18.238281 C 25.839844 18.347656 26.570312 18.570312 27.429688 18.894531 C 27.707031 19.488281 28.003906 20.074219 28.304688 20.667969 C 28.660156 21.378906 29.023438 22.09375 29.351562 22.839844 C 28.773438 23.1875 28.210938 23.566406 27.664062 23.96875 C 26.707031 23.335938 25.625 22.699219 24.390625 22.050781 C 20.726562 20.125 19.847656 17.574219 19 15.109375 C 18.285156 13.035156 17.605469 11.070312 15.292969 9.753906 C 17.832031 10.257812 19.203125 12.292969 20.53125 14.261719 C 21.09375 15.097656 21.671875 15.957031 22.339844 16.699219 Z M 27.207031 9.183594 C 27.804688 7.210938 28.425781 5.171875 27.386719 3.179688 C 28.929688 5.078125 28.894531 7.058594 28.859375 9.144531 C 28.816406 11.6875 28.765625 14.574219 31.640625 17.734375 C 32.601562 18.792969 33.414062 19.785156 34.105469 20.726562 C 32.558594 21.207031 31.054688 21.855469 29.636719 22.675781 C 29.308594 21.9375 28.949219 21.222656 28.59375 20.519531 C 27.054688 17.476562 25.597656 14.601562 26.941406 10.074219 C 27.027344 9.777344 27.117188 9.480469 27.207031 9.183594 Z M 31.78125 11.785156 C 32.246094 12.796875 32.96875 13.578125 34.054688 14.246094 C 34.507812 14.527344 35.117188 14.988281 35.816406 15.589844 C 35.871094 16.242188 35.949219 16.894531 36.027344 17.554688 C 36.132812 18.410156 36.234375 19.277344 36.285156 20.164062 C 35.664062 20.292969 35.046875 20.449219 34.433594 20.628906 C 33.722656 19.648438 32.882812 18.617188 31.878906 17.515625 C 29.09375 14.449219 29.140625 11.753906 29.1875 9.148438 C 29.222656 6.953125 29.257812 4.875 27.535156 2.847656 C 29.75 4.191406 30.34375 6.570312 30.914062 8.875 C 31.15625 9.851562 31.410156 10.859375 31.78125 11.785156 Z M 38.371094 7.132812 C 38.550781 6.882812 38.738281 6.632812 38.925781 6.386719 C 40.164062 4.738281 41.441406 3.035156 41.148438 0.808594 C 41.949219 3.121094 41.242188 4.96875 40.492188 6.914062 C 39.582031 9.292969 38.546875 11.984375 40.167969 15.9375 C 40.722656 17.296875 41.15625 18.539062 41.484375 19.6875 C 41.324219 19.6875 41.160156 19.683594 41 19.683594 L 40.996094 19.683594 C 39.542969 19.683594 38.066406 19.824219 36.609375 20.101562 C 36.554688 19.222656 36.453125 18.363281 36.351562 17.515625 C 35.945312 14.128906 35.5625 10.925781 38.371094 7.132812 Z M 42.515625 7.367188 C 42.410156 8.367188 42.300781 9.398438 42.335938 10.394531 C 42.429688 11.503906 42.839844 12.488281 43.628906 13.488281 C 44.523438 14.621094 46.019531 17.363281 47.234375 20.535156 C 45.457031 20.039062 43.632812 19.765625 41.828125 19.699219 C 41.492188 18.511719 41.046875 17.226562 40.46875 15.8125 C 38.898438 11.980469 39.863281 9.464844 40.796875 7.03125 C 41.585938 4.980469 42.328125 3.039062 41.398438 0.546875 C 43.023438 2.5625 42.765625 5.003906 42.515625 7.367188 Z M 50.894531 7.765625 C 52.628906 6.636719 54.414062 5.46875 54.890625 3.265625 C 54.859375 5.722656 53.558594 7.21875 52.1875 8.800781 C 50.515625 10.71875 48.625 12.898438 48.792969 17.167969 C 48.851562 18.582031 48.835938 19.859375 48.761719 21.015625 C 48.382812 20.882812 48.003906 20.757812 47.621094 20.644531 C 46.851562 18.605469 45.960938 16.726562 45.175781 15.3125 C 45.886719 12.75 46.992188 10.34375 50.117188 8.28125 C 50.375 8.105469 50.636719 7.9375 50.894531 7.765625 Z M 53.933594 9.914062 C 53.492188 10.816406 53.039062 11.75 52.726562 12.699219 C 52.433594 13.773438 52.484375 14.835938 52.886719 16.046875 C 53.054688 16.554688 53.222656 17.300781 53.375 18.207031 C 52.996094 18.742188 52.636719 19.292969 52.273438 19.847656 C 51.828125 20.53125 51.375 21.222656 50.878906 21.894531 C 50.289062 21.613281 49.6875 21.359375 49.078125 21.132812 C 49.160156 19.9375 49.179688 18.621094 49.121094 17.152344 C 48.957031 13.015625 50.722656 10.980469 52.433594 9.011719 C 53.875 7.355469 55.238281 5.785156 55.21875 3.125 C 56.054688 5.574219 54.976562 7.78125 53.933594 9.914062 Z M 61.671875 13.15625 C 63.679688 12.691406 65.753906 12.207031 66.960938 10.3125 C 66.085938 12.597656 64.355469 13.558594 62.53125 14.570312 C 60.304688 15.804688 57.78125 17.203125 56.480469 21.269531 C 56.078125 22.535156 55.660156 23.660156 55.222656 24.671875 C 53.972656 23.628906 52.609375 22.753906 51.175781 22.042969 C 51.664062 21.375 52.109375 20.699219 52.546875 20.027344 C 54.410156 17.171875 56.175781 14.472656 60.765625 13.375 C 61.066406 13.296875 61.367188 13.226562 61.671875 13.15625 Z M 63.792969 16.214844 C 63.070312 16.914062 62.320312 17.632812 61.703125 18.421875 C 61.0625 19.328125 60.746094 20.34375 60.707031 21.617188 C 60.691406 22.152344 60.597656 22.910156 60.429688 23.816406 C 59.890625 24.1875 59.363281 24.582031 58.832031 24.980469 C 58.230469 25.433594 57.617188 25.890625 56.976562 26.324219 C 56.5 25.816406 56.003906 25.339844 55.484375 24.890625 C 55.9375 23.847656 56.375 22.683594 56.792969 21.371094 C 58.054688 17.425781 60.410156 16.117188 62.691406 14.855469 C 64.609375 13.789062 66.429688 12.78125 67.320312 10.273438 C 67.265625 12.863281 65.5 14.566406 63.792969 16.214844 Z M 75.894531 21.042969 C 74.292969 22.894531 72.339844 23.203125 70.277344 23.53125 C 67.765625 23.929688 64.914062 24.378906 62.300781 27.757812 C 61.496094 28.800781 60.71875 29.710938 59.96875 30.507812 C 59.1875 29.039062 58.253906 27.730469 57.203125 26.566406 C 57.832031 26.140625 58.433594 25.6875 59.027344 25.242188 C 61.757812 23.195312 64.339844 21.265625 69.027344 21.800781 C 69.335938 21.832031 69.644531 21.871094 69.953125 21.910156 C 72 22.15625 74.113281 22.410156 75.894531 21.042969 Z M 73.910156 32.546875 C 74.1875 32.683594 74.464844 32.824219 74.742188 32.964844 C 76.582031 33.898438 78.480469 34.859375 80.621094 34.183594 C 78.484375 35.375 76.542969 34.996094 74.492188 34.597656 C 71.996094 34.113281 69.164062 33.5625 65.550781 35.84375 C 64.386719 36.582031 63.300781 37.191406 62.285156 37.699219 C 62.035156 36.007812 61.628906 34.441406 61.089844 33 C 61.855469 32.808594 62.601562 32.582031 63.335938 32.359375 C 66.601562 31.371094 69.6875 30.4375 73.910156 32.546875 Z M 74.402344 36.667969 C 73.398438 36.738281 72.363281 36.8125 71.386719 37.015625 C 70.308594 37.300781 69.414062 37.875 68.566406 38.828125 C 68.210938 39.226562 67.648438 39.746094 66.9375 40.328125 C 66.289062 40.269531 65.632812 40.234375 64.96875 40.199219 C 64.160156 40.152344 63.34375 40.105469 62.519531 40.015625 C 62.480469 39.339844 62.417969 38.683594 62.332031 38.039062 C 63.386719 37.519531 64.511719 36.886719 65.726562 36.121094 C 69.226562 33.90625 71.875 34.421875 74.433594 34.917969 C 76.589844 35.339844 78.628906 35.734375 80.925781 34.386719 C 79.21875 36.335938 76.769531 36.503906 74.402344 36.667969 Z M 80.566406 48.148438 C 78.152344 48.535156 76.457031 47.515625 74.667969 46.441406 C 72.488281 45.132812 70.011719 43.644531 65.839844 44.554688 C 64.496094 44.847656 63.269531 45.050781 62.140625 45.179688 C 62.382812 43.871094 62.527344 42.488281 62.566406 41.019531 C 62.566406 41.019531 62.566406 41.015625 62.566406 41.011719 C 62.558594 40.789062 62.550781 40.566406 62.539062 40.347656 C 63.351562 40.433594 64.15625 40.480469 64.949219 40.523438 C 68.355469 40.710938 71.574219 40.886719 74.820312 44.3125 C 75.039062 44.535156 75.25 44.765625 75.460938 44.992188 C 76.871094 46.496094 78.324219 48.050781 80.566406 48.148438 Z M 19.757812 41.019531 C 20.125 26.585938 31.023438 20.007812 41 20.011719 C 50.972656 20.011719 61.871094 26.585938 62.238281 41.015625 C 61.871094 55.449219 50.96875 62.023438 40.996094 62.023438 C 31.023438 62.023438 20.121094 55.449219 19.757812 41.019531 Z M 63.242188 32.050781 C 62.496094 32.273438 61.746094 32.5 60.972656 32.691406 C 60.71875 32.042969 60.433594 31.417969 60.128906 30.816406 C 60.910156 29.992188 61.71875 29.046875 62.558594 27.957031 C 65.09375 24.679688 67.753906 24.257812 70.328125 23.851562 C 72.496094 23.507812 74.550781 23.179688 76.242188 21.136719 C 75.304688 23.546875 73.066406 24.542969 70.898438 25.507812 C 69.980469 25.914062 69.03125 26.335938 68.183594 26.863281 C 67.269531 27.5 66.625 28.347656 66.15625 29.53125 C 65.957031 30.027344 65.609375 30.707031 65.140625 31.5 C 64.507812 31.664062 63.878906 31.855469 63.242188 32.050781 Z M 18.691406 15.21875 C 19.519531 17.625 20.460938 20.351562 24.238281 22.339844 C 25.421875 22.960938 26.460938 23.570312 27.386719 24.179688 C 26.128906 25.148438 24.972656 26.273438 23.953125 27.566406 C 23.421875 27.019531 22.875 26.507812 22.332031 26 C 19.84375 23.664062 17.492188 21.460938 17.207031 16.75 C 17.183594 16.441406 17.167969 16.128906 17.152344 15.820312 C 17.039062 13.761719 16.925781 11.632812 15.265625 10.117188 C 17.367188 11.375 18.011719 13.246094 18.691406 15.21875 Z M 63.304688 66.816406 C 62.476562 64.410156 61.535156 61.679688 57.753906 59.695312 C 56.574219 59.074219 55.53125 58.460938 54.609375 57.855469 C 55.867188 56.886719 57.023438 55.761719 58.042969 54.46875 C 58.574219 55.015625 59.121094 55.527344 59.664062 56.035156 C 62.152344 58.367188 64.503906 60.574219 64.789062 65.285156 C 64.8125 65.59375 64.828125 65.90625 64.84375 66.214844 C 64.957031 68.273438 65.070312 70.398438 66.726562 71.917969 C 64.628906 70.660156 63.984375 68.789062 63.304688 66.816406 Z M 40.996094 59.980469 C 50 59.980469 59.835938 54.046875 60.167969 41.023438 C 60.167969 41.019531 60.167969 41.015625 60.167969 41.011719 C 59.835938 27.988281 50 22.054688 41 22.054688 L 40.996094 22.054688 C 31.996094 22.054688 22.160156 27.988281 21.828125 41.019531 C 22.15625 54.046875 31.996094 59.976562 40.996094 59.980469 Z M 22.15625 41.019531 C 22.480469 28.214844 32.152344 22.382812 41 22.382812 C 49.847656 22.382812 59.515625 28.214844 59.839844 41.015625 C 59.511719 53.820312 49.84375 59.652344 40.996094 59.652344 C 32.148438 59.652344 22.476562 53.820312 22.15625 41.019531 Z M 22.15625 41.019531 " fill-opacity="1" fill-rule="nonzero"/></g></svg>